<svg width="52" height="52" viewBox="0 0 52 52" fill="none" xmlns="http://www.w3.org/2000/svg">
<path d="M27.9629 0C26.4876 0 25.0124 0 23.5371 0C23.3091 0.0538426 23.0945 0.148067 22.8665 0.174988C12.3922 1.38645 3.80885 8.68212 0.979038 18.8315C0.54987 20.366 0.321877 21.9678 0 23.5292C0 25.0099 0 26.4771 0 27.9578C0.14753 28.8462 0.295052 29.7346 0.45599 30.623C2.70911 42.2261 12.7409 50.9486 24.4357 51.4735C36.5194 52.012 47.262 44.2855 50.521 32.669C50.9501 31.1345 51.1781 29.5327 51.5 27.9712C51.5 26.4906 51.5 25.0234 51.5 23.5427C51.4329 23.2465 51.3525 22.9639 51.3122 22.6677C49.7029 12.2223 43.9628 5.11505 34.0919 1.44029C32.1473 0.713414 30.0148 0.457662 27.9629 0ZM48.0667 25.7233C48.0667 38.0129 38.0349 48.0411 25.7634 48.0545C13.4785 48.0545 3.43333 38.0398 3.43333 25.7502C3.43333 13.4607 13.4517 3.43247 25.75 3.419C38.0215 3.419 48.0667 13.4472 48.0667 25.7233Z" fill="black"/>
<path d="M28.5932 19.6305C28.5932 17.4658 28.6251 15.301 28.5773 13.1235C28.5613 12.1244 27.6687 11.4455 26.5689 11.4455C25.469 11.4327 24.6402 12.0988 24.5286 13.1107C24.4967 13.3925 24.5127 13.6871 24.5127 13.9689C24.5127 17.4402 24.4808 20.9114 24.5286 24.3955C24.5446 25.1 24.2736 25.5612 23.5722 25.9967C20.8944 27.6491 18.2644 29.3655 15.6344 31.0691C15.204 31.3381 14.7736 31.6583 14.5345 32.0426C14.0882 32.7471 14.3114 33.426 15.0605 33.9255C15.8575 34.4507 16.782 34.4763 17.579 33.964C21.006 31.7864 24.4489 29.6217 27.7962 27.3673C28.2744 27.047 28.5135 26.3041 28.5454 25.7533C28.657 23.7167 28.5932 21.6672 28.5932 19.6305Z" fill="black"/>
</svg>
